<svg width="24" height="24" xmlns="http://www.w3.org/2000/svg" xmlns:xlink="http://www.w3.org/1999/xlink" xml:space="preserve" overflow="hidden"><defs><clipPath id="clip0"><rect x="0" y="0" width="24" height="24"/></clipPath></defs><g clip-path="url(#clip0)"><path d="M15.5 5 17 5 17 3.5 14 3.5 14 9.5 15.5 9.5Z" fill="#00619D"/><path d="M10 16.5 4 16.5 4 10.5C4 8.85 5.35 7.5 7 7.5 8.65 7.5 10 8.85 10 10.5L10 16.5ZM17 6 16.5 6 16.5 10.5 13 10.5 13 6 7 6C4.525 6 2.5 8.025 2.5 10.5L2.5 18 11 18 11 20.5 13 20.5 13 18 21.5 18 21.5 10.5C21.5 8.025 19.475 6 17 6Z" fill="#00619D"/></g></svg>