<svg width="17" height="15" xmlns="http://www.w3.org/2000/svg" xmlns:xlink="http://www.w3.org/1999/xlink" xml:space="preserve" overflow="hidden"><defs><clipPath id="clip0"><rect x="0" y="0" width="17" height="15"/></clipPath></defs><g clip-path="url(#clip0)"><path d="M14.1562 12.5 8.04688 1.875C7.8125 1.45312 7.20312 1.45312 6.96875 1.875L0.84375 12.5C0.609375 12.9219 0.90625 13.4375 1.39062 13.4375L7.5 13.4375 13.6094 13.4375C14.0938 13.4375 14.3906 12.9219 14.1562 12.5ZM7.03125 4.375 7.96875 4.375 7.96875 9.84375 7.03125 9.84375 7.03125 4.375ZM7.5 12.0312C7.0625 12.0312 6.71875 11.6875 6.71875 11.25 6.71875 10.8125 7.0625 10.4688 7.5 10.4688 7.9375 10.4688 8.28125 10.8125 8.28125 11.25 8.28125 11.6875 7.9375 12.0312 7.5 12.0312Z" fill="#FF3B3B" transform="scale(1.13333 1)"/></g></svg>